<?xml version="1.0" standalone="no"?>
<!DOCTYPE svg PUBLIC "-//W3C//DTD SVG 1.1//EN" "http://www.w3.org/Graphics/SVG/1.1/DTD/svg11.dtd" >
<svg xmlns="http://www.w3.org/2000/svg" xmlns:xlink="http://www.w3.org/1999/xlink" version="1.1">
<metadata>
Created by FontForge 20200511 at Thu Jul 15 16:54:30 1993
 By convertio
Generated by Fontographer 3.5
</metadata>
<defs>
<font id="Intrepid" horiz-adv-x="537" >
  <font-face 
    font-family="Intrepid"
    font-weight="5"
    font-stretch="normal"
    units-per-em="1000"
    panose-1="0 0 0 0 0 0 0 0 0 0"
    ascent="800"
    descent="-200"
    x-height="434"
    cap-height="700"
    bbox="-151 -284 1037 911"
    underline-thickness="20"
    underline-position="-210"
    unicode-range="U+0020-F002"
  />
<missing-glyph horiz-adv-x="800" 
d="M50 0v800h700v-800h-700zM700 50v700h-600v-700h600z" />
    <glyph glyph-name=".notdef" horiz-adv-x="800" 
d="M50 0v800h700v-800h-700zM700 50v700h-600v-700h600z" />
    <glyph glyph-name=".null" unicode="&#xd7;" horiz-adv-x="0" 
 />
    <glyph glyph-name=".null" unicode="&#x141;" horiz-adv-x="0" 
 />
    <glyph glyph-name=".null" unicode="&#xfd;" horiz-adv-x="0" 
 />
    <glyph glyph-name="nonmarkingreturn" horiz-adv-x="500" 
 />
    <glyph glyph-name="space" unicode=" " horiz-adv-x="500" 
 />
    <glyph glyph-name="space" unicode="&#xa0;" horiz-adv-x="500" 
 />
    <glyph glyph-name="exclam" unicode="!" horiz-adv-x="298" 
d="M195 157h-91v543h91v-543zM206 41q0 -24 -16 -40t-41 -16q-24 0 -41 16t-17 40q0 25 16.5 41.5t41.5 16.5q24 0 40.5 -16.5t16.5 -41.5z" />
    <glyph glyph-name="quotedbl" unicode="&#x22;" horiz-adv-x="392" 
d="M384 668l-128 -251l-71 22l103 261zM224 668l-128 -251l-71 22l103 261z" />
    <glyph glyph-name="numbersign" unicode="#" 
d="M518 406h-99l-24 -131h93v-83h-109l-35 -192h-82l35 192h-105l-37 -192h-79l34 192h-92v83h107l24 131h-96v82h110l33 179h83l-33 -179h104l32 179h84l-32 -179h84v-82zM336 406h-104l-24 -131h104z" />
    <glyph glyph-name="dollar" unicode="$" horiz-adv-x="510" 
d="M468 207q0 -83 -52.5 -142.5t-133.5 -74.5v-95h-59v90q-64 0 -125 36q-14 8 -80 59l53 73q61 -47 91 -62t61 -18v253l-39 15q-70 27 -103 66q-38 45 -38 118q0 78 51.5 129.5t128.5 59.5v86h59v-87q44 0 84 -19q34 -16 69 -49l-52 -71q-21 24 -46.5 39t-54.5 21v-230
q90 -35 130 -70q56 -49 56 -127zM223 427v209q-36 -8 -60 -38t-24 -67q0 -40 25 -67q20 -21 55 -35zM372 195q0 39 -27 67q-21 22 -63 40v-225q41 12 65.5 43.5t24.5 74.5z" />
    <glyph glyph-name="percent" unicode="%" horiz-adv-x="657" 
d="M339 551q0 -69 -46 -115t-116 -46q-68 0 -115 46t-47 115t46 115t116 46q68 0 115 -46t47 -115zM561 686l-413 -701l-52 28l415 702zM645 149q0 -69 -46 -115t-116 -46q-68 0 -115 46t-47 115t46 115t116 46q68 0 115 -46t47 -115zM280 551q0 44 -29.5 75.5t-73.5 31.5
q-45 0 -74 -31t-29 -76q0 -43 29.5 -74.5t73.5 -31.5q43 0 73 31t30 75zM586 149q0 44 -29.5 75.5t-73.5 31.5q-45 0 -74 -31t-29 -76q0 -43 29.5 -74.5t73.5 -31.5q43 0 73 31t30 75z" />
    <glyph glyph-name="ampersand" unicode="&#x26;" horiz-adv-x="642" 
d="M667 0h-112l-77 92q-45 -49 -100 -78t-114 -29q-92 0 -156 59t-64 149q0 66 27.5 117t81.5 87l40 28q-35 38 -54 73q-22 42 -22 81q0 66 43 101t116 35q69 0 113.5 -35.5t44.5 -100.5q0 -46 -34 -91q-28 -37 -82 -75l174 -203l78 68l54 -59l-79 -70zM345 579
q0 33 -18.5 49.5t-52.5 16.5q-30 0 -47.5 -17.5t-17.5 -48.5q0 -29 11 -48q3 -5 20 -27l22 -24l4 1q46 36 53 43q26 27 26 55zM426 153l-178 207q-58 -41 -77 -62q-39 -43 -39 -98q0 -54 37.5 -92.5t91.5 -38.5q43 0 88 25q38 21 77 59z" />
    <glyph glyph-name="quotesingle" unicode="'" horiz-adv-x="234" 
d="M230 668l-128 -251l-71 22l103 261z" />
    <glyph glyph-name="parenleft" unicode="(" horiz-adv-x="271" 
d="M225 -122l-78 -57q-50 99 -74.5 223t-24.5 242q0 120 23.5 241t75.5 224l77 -56q-41 -89 -61 -197.5t-20 -211.5q0 -110 19.5 -213.5t62.5 -194.5z" />
    <glyph glyph-name="parenright" unicode=")" horiz-adv-x="271" 
d="M223 286q0 -119 -22 -233q-25 -129 -76 -232l-77 56q42 92 61 196t19 213q0 106 -19 211t-61 198l77 56q49 -99 75 -231q23 -118 23 -234z" />
    <glyph glyph-name="asterisk" unicode="*" horiz-adv-x="356" 
d="M333 570l-102 -22l77 -79l-71 -53l-53 97l-62 -97l-70 58l84 70l-108 29l31 75l95 -52l-20 106h88l-14 -107l100 54z" />
    <glyph glyph-name="plus" unicode="+" 
d="M511 194h-198v-194h-90v194h-197v88h197v193h90v-193h198v-88z" />
    <glyph glyph-name="comma" unicode="," horiz-adv-x="268" 
d="M229 102l-128 -251l-66 27l103 261z" />
    <glyph glyph-name="hyphen" unicode="-" horiz-adv-x="308" 
d="M266 216h-223v69h223v-69z" />
    <glyph glyph-name="period" unicode="." horiz-adv-x="235" 
d="M175 41q0 -24 -16 -40t-41 -16q-24 0 -41 16t-17 40q0 25 16.5 41.5t41.5 16.5q24 0 40.5 -16.5t16.5 -41.5z" />
    <glyph glyph-name="slash" unicode="/" horiz-adv-x="511" 
d="M489 771l-390 -888l-74 35l389 888z" />
    <glyph glyph-name="zero" unicode="0" 
d="M514 350q0 -134 -53 -236q-67 -129 -193 -129t-193 128q-53 101 -53 237q0 137 52 237q66 128 194 128q126 0 193 -128q53 -102 53 -237zM429 351q0 111 -34 190q-43 101 -127 101q-85 0 -127 -105q-32 -79 -32 -186q0 -110 32 -186q42 -99 127 -99t128 102q33 79 33 183
z" />
    <glyph glyph-name="one" unicode="1" horiz-adv-x="391" 
d="M242 0h-95v619h-106l60 81h141v-700z" />
    <glyph glyph-name="two" unicode="2" 
d="M486 0h-438l286 375q24 31 37.5 61t13.5 62q0 60 -37 98t-99 38q-61 0 -95 -38t-34 -100l-84 5q11 105 65.5 159.5t153.5 54.5q94 0 155.5 -60.5t61.5 -153.5q0 -38 -15 -78.5t-39 -71.5l-211 -271h279v-80z" />
    <glyph glyph-name="three" unicode="3" 
d="M492 199q0 -98 -64 -156t-165 -58q-100 0 -165.5 62.5t-65.5 161.5h87q7 -65 38 -102q36 -43 102 -43q63 0 105.5 35.5t42.5 93.5q0 57 -39.5 95.5t-103.5 38.5q-13 0 -19 -1v75q68 0 110 31.5t42 87.5q0 51 -37.5 85.5t-92.5 34.5q-45 0 -78.5 -29.5t-38.5 -81.5h-89
q13 92 68 139t145 47t149 -53t59 -141q0 -49 -27 -89.5t-74 -61.5q53 -20 82 -67.5t29 -103.5z" />
    <glyph glyph-name="four" unicode="4" horiz-adv-x="561" 
d="M523 106h-86v-106h-87v106h-341l428 626v-547h86v-79zM350 185v283l-3 -1l-189 -282h192z" />
    <glyph glyph-name="five" unicode="5" 
d="M501 241q0 -105 -74.5 -181.5t-185.5 -76.5q-69 0 -129.5 34t-94.5 95l60 55q26 -53 75 -80q43 -24 91 -24q67 0 118.5 52.5t51.5 124.5q0 73 -41 120q-44 51 -118 51q-40 0 -81 -12t-63 -38h-8l100 339h295l-12 -80h-225l-43 -148q12 3 19 4q26 5 39 5q98 0 162 -70
t64 -170z" />
    <glyph glyph-name="six" unicode="6" horiz-adv-x="543" 
d="M518 229q0 -98 -72.5 -171.5t-176.5 -73.5q-108 0 -176 72t-68 177q0 101 70 185l235 282h102l-202 -239l2 -2q21 10 61 10q93 0 157 -64q68 -68 68 -176zM433 231q0 69 -46.5 116.5t-113.5 47.5q-72 0 -117 -48t-45 -114q0 -73 45 -119t117 -46q64 0 112 49t48 114z" />
    <glyph glyph-name="seven" unicode="7" 
d="M564 700l-457 -731l-76 42l383 609h-380v80h530z" />
    <glyph glyph-name="eight" unicode="8" 
d="M490 199q0 -97 -63 -155.5t-159 -58.5q-97 0 -159.5 57t-62.5 155q0 53 30 98t79 68q-46 26 -70.5 64.5t-24.5 87.5q0 87 59.5 143.5t148.5 56.5q90 0 149.5 -56.5t59.5 -143.5q0 -50 -24.5 -89.5t-71.5 -61.5q45 -17 77 -65t32 -100zM388 515q0 53 -34.5 86.5
t-85.5 33.5q-52 0 -86 -33t-34 -87q0 -49 33 -83t87 -34t87 31t33 86zM402 190q0 56 -38 93t-96 37q-60 0 -96.5 -37.5t-36.5 -93.5q0 -54 39 -90t94 -36q54 0 94 38t40 89z" />
    <glyph glyph-name="nine" unicode="9" 
d="M502 488q0 -48 -23 -96q-19 -39 -57 -86l-268 -324l-66 52l207 244q-27 -9 -61 -9q-90 0 -151 63t-61 151q0 97 69.5 164.5t169.5 67.5q101 0 171 -64t70 -163zM414 487q0 57 -43.5 101.5t-102.5 44.5q-66 0 -111.5 -42.5t-45.5 -103.5q0 -64 43.5 -105.5t106.5 -41.5
q71 0 112 43t41 104z" />
    <glyph glyph-name="colon" unicode=":" horiz-adv-x="268" 
d="M190 331q0 -24 -16 -40t-41 -16q-24 0 -41 16t-17 40q0 25 16.5 41.5t41.5 16.5q24 0 40.5 -16.5t16.5 -41.5zM190 41q0 -24 -16 -40t-41 -16q-24 0 -41 16t-17 40q0 25 16.5 41.5t41.5 16.5q24 0 40.5 -16.5t16.5 -41.5z" />
    <glyph glyph-name="semicolon" unicode=";" horiz-adv-x="268" 
d="M231 332q0 -24 -16 -40t-41 -16q-24 0 -41 16t-17 40q0 25 16.5 41.5t41.5 16.5q24 0 40.5 -16.5t16.5 -41.5zM229 102l-128 -251l-66 27l103 261z" />
    <glyph glyph-name="less" unicode="&#x3c;" 
d="M511 13l-485 190v69l485 190v-93l-350 -130l350 -133v-93z" />
    <glyph glyph-name="equal" unicode="=" 
d="M511 272h-485v85h485v-85zM511 118h-485v86h485v-86z" />
    <glyph glyph-name="greater" unicode="&#x3e;" 
d="M511 203l-485 -190v93l350 133l-350 130v93l485 -190v-69z" />
    <glyph glyph-name="question" unicode="?" horiz-adv-x="421" 
d="M381 545q0 -44 -23 -79.5t-60 -51.5l-96 -40q-29 -12 -40 -21q-18 -15 -18 -38q0 -27 19.5 -47.5t45.5 -20.5q59 0 67 74l87 -6q0 -61 -44 -105t-106 -44q-67 0 -113.5 44.5t-46.5 109.5q0 57 38 93q28 26 88.5 48t74.5 30q38 22 38 59q0 33 -24 56t-57 23
q-83 0 -83 -101l-86 6v29q0 61 49.5 106.5t122.5 45.5q74 0 120.5 -47.5t46.5 -122.5zM266 41q0 -24 -16 -40t-41 -16q-24 0 -41 16t-17 40q0 25 16.5 41.5t41.5 16.5q24 0 40.5 -16.5t16.5 -41.5z" />
    <glyph glyph-name="at" unicode="@" horiz-adv-x="743" 
d="M705 422q0 -122 -56 -197q-32 -42 -67.5 -61t-71.5 -19q-16 0 -27 14t-20 50q-35 -33 -65.5 -48.5t-64.5 -15.5q-60 0 -105.5 49.5t-45.5 121.5q0 86 50 150q54 69 135 69q31 0 59 -15t68 -56l13 59h56l-45 -234q-3 -18 -5 -31.5t-2 -21.5q0 -35 25 -35q34 0 69.5 58
t35.5 127q0 121 -72 193t-184 72q-119 0 -200.5 -87.5t-81.5 -213.5q0 -130 87.5 -218.5t210.5 -88.5q108 0 173 53l61 -51q-62 -31 -106 -43q-60 -17 -135 -17q-150 0 -253 104t-103 261q0 155 102 260t248 105q63 0 117.5 -19.5t101 -62.5t72.5 -95.5t26 -115.5zM472 343
q1 5 1 16q0 50 -31.5 82.5t-78.5 32.5q-54 0 -88 -51q-30 -45 -30 -99q0 -44 27.5 -81t70.5 -37q58 0 94 45q29 36 35 92z" />
    <glyph glyph-name="A" unicode="A" horiz-adv-x="640" 
d="M648 0h-106l-77 179h-290l-77 -179h-106l327 730zM430 259l-111 257l-110 -257h221z" />
    <glyph glyph-name="B" unicode="B" horiz-adv-x="465" 
d="M475 200q0 -100 -72 -153q-64 -47 -169 -47h-174v700h122q106 0 161 -37q67 -45 67 -149q0 -41 -18.5 -77t-54.5 -57v-5q54 -12 96 -62.5t42 -112.5zM320 514q0 62 -41 89q-32 21 -97 21h-30v-233h50q58 0 88 29t30 94zM382 200q0 70 -50 99q-37 22 -104 22h-76v-241h73
q66 0 107 26q50 31 50 94z" />
    <glyph glyph-name="C" unicode="C" horiz-adv-x="602" 
d="M570 35q-87 -50 -175 -50q-164 0 -269.5 103.5t-105.5 257.5q0 152 111 255.5t261 103.5q47 0 89.5 -12.5t82.5 -37.5v-110q-39 40 -76 57q-43 20 -98 20q-113 0 -196 -81t-83 -190q0 -113 84 -198t197 -85q51 0 91 17.5t87 56.5v-107z" />
    <glyph glyph-name="D" unicode="D" horiz-adv-x="632" 
d="M602 354q0 -173 -108 -266q-102 -88 -278 -88h-156v700h167q171 0 270 -86q105 -91 105 -260zM510 354q0 135 -84 203q-77 63 -216 63h-58v-540h66q125 0 204 66q88 74 88 208z" />
    <glyph glyph-name="E" unicode="E" horiz-adv-x="466" 
d="M440 0h-380v700h380v-80h-288v-200h279v-80h-279v-260h288v-80z" />
    <glyph glyph-name="F" unicode="F" horiz-adv-x="428" 
d="M401 620h-249v-200h242v-80h-242v-340h-92v700h341v-80z" />
    <glyph glyph-name="G" unicode="G" horiz-adv-x="742" 
d="M722 322q0 -146 -93.5 -241.5t-244.5 -95.5q-150 0 -257 108t-107 255q0 152 108.5 259.5t264.5 107.5q172 0 291 -144l-72 -61q-38 51 -97 84q-64 36 -124 36q-121 0 -201 -79t-80 -200q0 -115 81 -197t197 -82q90 0 154 55t72 138h-164v88h272v-31z" />
    <glyph glyph-name="H" unicode="H" horiz-adv-x="631" 
d="M571 0h-91v340h-328v-340h-92v700h92v-280h328v280h91v-700z" />
    <glyph glyph-name="I" unicode="I" horiz-adv-x="212" 
d="M152 0h-92v700h92v-700z" />
    <glyph glyph-name="J" unicode="J" horiz-adv-x="336" 
d="M276 257q0 -124 -32 -187q-43 -85 -152 -85q-24 0 -50.5 6t-47.5 19l55 78q13 -10 22 -13t25 -3q57 0 77 68q11 38 11 117v443h92v-443z" />
    <glyph glyph-name="K" unicode="K" horiz-adv-x="557" 
d="M589 0h-126l-286 310l-25 -24v-286h-92v700h92v-294l302 294h120l-333 -335z" />
    <glyph glyph-name="L" unicode="L" horiz-adv-x="405" 
d="M364 0h-304v700h92v-620h212v-80z" />
    <glyph glyph-name="M" unicode="M" horiz-adv-x="794" 
d="M782 0h-96l-80 454l-210 -476l-212 475l-82 -453h-90l142 726l241 -545l241 540z" />
    <glyph glyph-name="N" unicode="N" horiz-adv-x="735" 
d="M675 -27l-523 539v-512h-92v725l526 -532v507h89v-727z" />
    <glyph glyph-name="O" unicode="O" horiz-adv-x="777" 
d="M757 350q0 -156 -103.5 -260.5t-259.5 -104.5q-157 0 -265.5 104.5t-108.5 260.5q0 149 110 257t264 108q151 0 257 -108t106 -257zM666 350q0 116 -78 198t-196 82q-123 0 -201 -81t-78 -197q0 -120 82 -200t197 -80t194.5 80.5t79.5 197.5z" />
    <glyph glyph-name="P" unicode="P" horiz-adv-x="474" 
d="M454 500q0 -104 -67 -156q-61 -47 -172 -47h-63v-297h-92v700h120q71 0 110 -5.5t74 -22.5q48 -24 69 -67t21 -105zM363 501q0 70 -43 99q-35 24 -106 24h-62v-250h47q70 0 111 24q53 31 53 103z" />
    <glyph glyph-name="Q" unicode="Q" horiz-adv-x="777" 
d="M786 -15h-134l-59 59q-41 -26 -95 -42.5t-102 -16.5q-157 0 -266.5 104.5t-109.5 260.5q0 149 111 257t265 108q149 0 255 -107t106 -254q0 -74 -22.5 -139t-67.5 -116zM666 350q0 112 -76 194q-80 86 -196 86q-120 0 -200.5 -81.5t-80.5 -194.5q0 -120 83 -201t200 -81
q33 0 68 8.5t66 24.5l-49 45l-38 34l-66 60h137l84 -79q32 32 50 85t18 100z" />
    <glyph glyph-name="R" unicode="R" horiz-adv-x="489" 
d="M505 0h-107l-204 300h-42v-300h-92v700h116q68 0 112 -5.5t86 -29t63 -68t21 -101.5q0 -70 -47.5 -123.5t-120.5 -68.5zM369 495q0 78 -51 107q-38 22 -114 22h-52v-252h40q73 0 117 23q60 31 60 100z" />
    <glyph glyph-name="S" unicode="S" horiz-adv-x="510" 
d="M480 207q0 -96 -68 -159t-168 -63q-67 0 -131 36q-25 14 -83 59l53 73q55 -42 79 -56q45 -25 91 -25q57 0 94 35t37 88q0 50 -47 84q-24 17 -91 43l-50 19q-70 27 -103 66q-38 45 -38 118q0 85 59.5 137.5t144.5 52.5q60 0 104 -16.5t84 -53.5l-52 -71q-27 31 -65 47.5
t-75 16.5q-43 0 -73.5 -32.5t-30.5 -74.5q0 -40 25 -67q20 -21 55 -35l51 -20q123 -47 163 -95q35 -43 35 -107z" />
    <glyph glyph-name="T" unicode="T" horiz-adv-x="423" 
d="M425 620h-168v-620h-91v620h-168v80h427v-80z" />
    <glyph glyph-name="U" unicode="U" horiz-adv-x="630" 
d="M570 259q0 -120 -65 -195q-69 -79 -190 -79t-190 79q-65 74 -65 195v441h91v-429q0 -90 34 -141q41 -62 130 -62t130 61q34 51 34 142v429h91v-441z" />
    <glyph glyph-name="V" unicode="V" horiz-adv-x="594" 
d="M604 700l-303 -737l-309 737h95l211 -506l207 506h99z" />
    <glyph glyph-name="W" unicode="W" horiz-adv-x="953" 
d="M967 700l-291 -728l-199 505l-196 -505l-294 728h97l195 -493l199 508l197 -508l196 493h96z" />
    <glyph glyph-name="X" unicode="X" horiz-adv-x="533" 
d="M541 0h-109l-162 284l-170 -284h-109l227 371l-188 329h106l136 -249l142 249h106l-196 -328z" />
    <glyph glyph-name="Y" unicode="Y" horiz-adv-x="532" 
d="M542 700l-230 -395v-305h-91v304l-231 396h107l169 -291l169 291h107z" />
    <glyph glyph-name="Z" unicode="Z" horiz-adv-x="512" 
d="M510 0h-508l360 620h-302v80h443l-351 -620h358v-80z" />
    <glyph glyph-name="bracketleft" unicode="[" horiz-adv-x="289" 
d="M233 -179h-176v930h176v-78h-91v-774h91v-78z" />
    <glyph glyph-name="backslash" unicode="\" horiz-adv-x="511" 
d="M482 0h-78l-375 806h78z" />
    <glyph glyph-name="bracketright" unicode="]" horiz-adv-x="289" 
d="M232 -179h-176v78h91v774h-91v78h176v-930z" />
    <glyph glyph-name="asciicircum" unicode="^" 
d="M506 286h-87l-150 336l-152 -336h-86l185 414h104z" />
    <glyph glyph-name="underscore" unicode="_" horiz-adv-x="464" 
d="M469 -200h-474v60h474v-60z" />
    <glyph glyph-name="grave" unicode="`" horiz-adv-x="0" 
d="M277 539l-41 -25l-158 122l71 45z" />
    <glyph glyph-name="a" unicode="a" horiz-adv-x="534" 
d="M474 0h-93v66l-1 -5q-23 -31 -62 -53.5t-85 -22.5q-97 0 -157 71q-56 67 -56 164q0 93 56 158q60 69 154 69q46 0 91 -23q40 -20 58 -46l2 2v54h93v-434zM382 217q0 64 -35 106q-38 46 -101 46q-60 0 -96 -45.5t-36 -106.5t34 -105q38 -49 98 -49q63 0 101 47
q35 43 35 107z" />
    <glyph glyph-name="b" unicode="b" horiz-adv-x="516" 
d="M507 218q0 -95 -54 -161q-59 -72 -155 -72q-44 0 -83 21t-61 51l-2 -57h-92v778h92v-395q20 26 59 44q44 21 91 21q92 0 150 -69q55 -66 55 -161zM417 219q0 64 -35 106q-38 46 -101 46q-60 0 -97 -45.5t-37 -106.5q0 -64 33 -107q37 -49 103 -49q63 0 98.5 45.5
t35.5 110.5z" />
    <glyph glyph-name="c" unicode="c" horiz-adv-x="409" 
d="M383 16q-58 -31 -125 -31q-100 0 -168.5 65.5t-68.5 163.5q0 101 69 167t173 66q32 0 62.5 -7.5t57.5 -22.5v-103q-34 26 -65.5 38.5t-66.5 12.5q-57 0 -98 -45t-41 -103q0 -64 41 -107t104 -43q24 0 52 10t74 43v-104z" />
    <glyph glyph-name="d" unicode="d" horiz-adv-x="519" 
d="M471 0h-92v58q-26 -34 -63 -53.5t-83 -19.5q-98 0 -157 71q-55 67 -55 166q0 94 57.5 160.5t150.5 66.5q45 0 93 -25q40 -21 55 -42l2 396h92v-778zM382 219q0 64 -35 106q-38 46 -101 46q-60 0 -97 -45.5t-37 -106.5q0 -62 36.5 -109t97.5 -47q64 0 100 45.5t36 110.5z
" />
    <glyph glyph-name="e" unicode="e" horiz-adv-x="463" 
d="M443 201h-333q0 -54 37.5 -97t92.5 -43q44 0 75.5 24.5t57.5 69.5l69 -42q-35 -61 -87 -94.5t-116 -33.5q-100 0 -159 64t-59 165q0 103 57.5 168t158.5 65q97 0 154 -69q52 -63 52 -160v-17zM351 265q-8 50 -37.5 77.5t-78.5 27.5t-81.5 -28.5t-38.5 -76.5h236z" />
    <glyph glyph-name="f" unicode="f" horiz-adv-x="285" 
d="M285 705q-15 8 -31 11.5t-30 3.5q-38 0 -57 -36q-15 -28 -15 -67v-183h129v-80h-129v-354h-92v354h-46v80h46v186q0 85 35 130q39 50 118 50q38 0 45 -1t27 -8v-86z" />
    <glyph glyph-name="g" unicode="g" horiz-adv-x="520" 
d="M471 9q0 -55 -10.5 -101.5t-35.5 -82.5q-28 -40 -74 -63.5t-104 -23.5q-81 0 -138 40q-63 44 -63 119h93q0 -46 34 -66q27 -16 78 -16q68 0 101 51q27 42 27 115v73q-19 -25 -57 -46q-46 -26 -89 -26q-98 0 -157 71q-55 66 -55 165q0 94 57.5 161t151.5 67q49 0 88 -21
t59 -53l2 62h92v-425zM384 215q0 64 -36 107q-39 47 -102 47q-60 0 -98 -46.5t-38 -107.5t37.5 -108.5t98.5 -47.5q64 0 101 45.5t37 110.5z" />
    <glyph glyph-name="h" unicode="h" horiz-adv-x="486" 
d="M434 0h-92v251q0 63 -12 86q-17 33 -73 33q-69 0 -91 -47q-14 -30 -14 -105v-218h-92v778h92v-393q17 29 52.5 47t76.5 18q86 0 124 -58q29 -44 29 -122v-270z" />
    <glyph glyph-name="i" unicode="i" horiz-adv-x="212" 
d="M164 642q0 -24 -16 -40t-41 -16q-24 0 -41 16t-17 40q0 25 16.5 41.5t41.5 16.5q24 0 40.5 -16.5t16.5 -41.5zM152 0h-92v434h92v-434z" />
    <glyph glyph-name="j" unicode="j" horiz-adv-x="212" 
d="M170 642q0 -24 -16 -40t-41 -16q-24 0 -41 16t-17 40q0 25 16.5 41.5t41.5 16.5q24 0 40.5 -16.5t16.5 -41.5zM152 -249h-92v683h92v-683z" />
    <glyph glyph-name="k" unicode="k" horiz-adv-x="429" 
d="M444 0h-115l-170 185l-7 -5v-180h-92v778h92v-510l164 166h110l-209 -201z" />
    <glyph glyph-name="l" unicode="l" horiz-adv-x="212" 
d="M152 0h-92v778h92v-778z" />
    <glyph glyph-name="m" unicode="m" horiz-adv-x="712" 
d="M667 0h-92v251q0 54 -9 77q-15 39 -62 39q-45 0 -67 -28q-27 -34 -27 -121v-218h-92v236q0 63 -8 86q-16 46 -65 46q-45 0 -67 -28q-26 -33 -26 -122v-218h-92v434h92v-60l2 2q15 30 46.5 50t68.5 20q41 0 68 -16.5t51 -53.5q21 32 60 50.5t81 18.5q76 0 110 -51
q28 -43 28 -122v-272z" />
    <glyph glyph-name="n" unicode="n" horiz-adv-x="494" 
d="M434 0h-92v246q0 64 -12 87q-18 34 -74 34q-69 0 -91 -47q-13 -28 -13 -102v-218h-92v434h92v-55q21 33 53.5 52t73.5 19q88 0 125 -56q30 -45 30 -137v-257z" />
    <glyph glyph-name="o" unicode="o" horiz-adv-x="505" 
d="M485 216q0 -99 -66 -165t-167 -66q-100 0 -166 66t-66 165t66 165t166 66q99 0 166 -66t67 -165zM399 216q0 63 -42.5 107.5t-104.5 44.5t-104.5 -44.5t-42.5 -107.5q0 -60 42.5 -105.5t104.5 -45.5t104.5 44.5t42.5 106.5z" />
    <glyph glyph-name="p" unicode="p" horiz-adv-x="516" 
d="M505 218q0 -100 -53 -165q-58 -71 -157 -71q-44 0 -83.5 21t-59.5 48v-300h-92v683h92v-62q23 30 60 51q42 24 90 24q92 0 149 -69q54 -65 54 -160zM417 215q0 66 -33 108q-36 46 -102 46q-64 0 -100.5 -45t-36.5 -109q0 -68 36 -111.5t100 -43.5q65 0 100.5 42t35.5 113
z" />
    <glyph glyph-name="q" unicode="q" horiz-adv-x="521" 
d="M475 -249h-92v302q-24 -33 -63.5 -52t-87.5 -19q-95 0 -153 72q-53 66 -53 164q0 92 58.5 160.5t145.5 68.5q50 0 88.5 -19t63.5 -54l1 60h92v-683zM388 213q0 67 -34 109q-37 46 -105 46q-60 0 -97.5 -46.5t-37.5 -108.5q0 -63 36 -108.5t99 -45.5q65 0 102 44.5
t37 109.5z" />
    <glyph glyph-name="r" unicode="r" horiz-adv-x="351" 
d="M349 424l-41 -72q-10 7 -24 10.5t-30 3.5q-56 0 -81 -43q-21 -36 -21 -100v-223h-92v434h92v-60q13 26 44 47q37 25 78 25q40 0 75 -22z" />
    <glyph glyph-name="s" unicode="s" horiz-adv-x="356" 
d="M325 132q0 -67 -46 -109q-42 -38 -99 -38q-52 0 -84.5 18.5t-73.5 63.5l68 40q31 -48 89 -48q25 0 44.5 17.5t19.5 42.5q0 32 -28 47l-84 42q-35 18 -49 30q-34 29 -34 81q0 55 38.5 91.5t94.5 36.5q44 0 73.5 -12.5t54.5 -46.5l-61 -48q-10 20 -27.5 28.5t-38.5 8.5
q-19 0 -37 -13.5t-18 -37.5q0 -28 43 -50q35 -16 53 -24q50 -22 71 -42q31 -30 31 -78z" />
    <glyph glyph-name="t" unicode="t" horiz-adv-x="223" 
d="M235 354h-83v-354h-92v354h-46v80h46v167h92v-167h83v-80z" />
    <glyph glyph-name="u" unicode="u" horiz-adv-x="475" 
d="M423 186q0 -94 -43 -145q-47 -56 -142 -56t-140.5 53t-45.5 148v248h92v-251q0 -57 17 -84q22 -35 77 -35t76 34q17 27 17 84v252h92v-248z" />
    <glyph glyph-name="v" unicode="v" horiz-adv-x="413" 
d="M429 434l-223 -449l-222 449h96l126 -275l128 275h95z" />
    <glyph glyph-name="w" unicode="w" horiz-adv-x="667" 
d="M686 434l-225 -449l-123 285l-131 -285l-221 449h98l122 -273l132 292l127 -290l130 271h91z" />
    <glyph glyph-name="x" unicode="x" horiz-adv-x="454" 
d="M463 0h-106l-129 164l-129 -164h-102l184 230l-166 204h111l105 -140l106 140h103l-158 -204z" />
    <glyph glyph-name="y" unicode="y" horiz-adv-x="449" 
d="M464 434l-351 -683h-95l170 329l-204 354h103l146 -266l133 266h98z" />
    <glyph glyph-name="z" unicode="z" horiz-adv-x="479" 
d="M462 434l-298 -362h280v-72h-445l296 360h-243v74h410z" />
    <glyph glyph-name="braceleft" unicode="{" horiz-adv-x="310" 
d="M265 -180h-72q-25 0 -50 33q-29 38 -29 89v169q0 107 -69 141v67q69 34 69 141v168q0 51 29 90q25 33 50 33h72v-78h-37q-18 0 -23 -14.5t-5 -43.5v-170q0 -63 -26 -109q-16 -28 -44 -51q27 -20 44 -50q26 -46 26 -109v-171q0 -31 4.5 -44t23.5 -13h37v-78z" />
    <glyph glyph-name="bar" unicode="|" horiz-adv-x="529" 
d="M304 0h-79v806h79v-806z" />
    <glyph glyph-name="braceright" unicode="}" horiz-adv-x="310" 
d="M265 252q-69 -34 -69 -141v-169q0 -51 -29 -89q-25 -33 -50 -33h-72v78h37q18 0 23 14.5t5 42.5v171q0 62 26 108q18 32 45 51q-27 21 -44 51q-27 47 -27 109v170q0 38 -6 48t-22 10h-37v78h72q25 0 50 -33q29 -38 29 -90v-168q0 -107 69 -141v-67z" />
    <glyph glyph-name="asciitilde" unicode="~" 
d="M506 263q-28 -49 -57 -76q-40 -37 -84 -37q-29 0 -67 22q-10 6 -40 26q-24 16 -47.5 31.5t-35.5 15.5q-23 0 -41.5 -17.5t-43.5 -58.5l-58 41q37 56 58 77q39 38 83 38q30 0 62 -15q21 -10 51 -32q21 -17 42 -32.5t36 -15.5q18 0 33 12.5t47 68.5z" />
    <glyph glyph-name="Adieresis" unicode="&#xc4;" horiz-adv-x="640" 
d="M648 0h-106l-77 179h-290l-77 -179h-106l327 730zM430 259l-111 257l-110 -257h221zM468 819q0 -23 -16 -40t-39 -17q-24 0 -41.5 16.5t-17.5 40.5q0 23 17 39t42 16q23 0 39 -16t16 -39zM286 819q0 -23 -17 -40t-40 -17q-24 0 -40.5 16.5t-16.5 40.5q0 23 16 39t41 16
q23 0 40 -16t17 -39z" />
    <glyph glyph-name="Aring" unicode="&#xc5;" horiz-adv-x="640" 
d="M648 0h-106l-77 179h-290l-77 -179h-106l327 730zM430 259l-111 257l-110 -257h221zM400 826q0 -34 -23 -57t-58 -23q-33 0 -56 23t-23 57q0 32 23 56t56 24q34 0 57.5 -23.5t23.5 -56.5zM360 826q0 17 -12 28t-29 11q-16 0 -28 -11t-12 -28t12 -29t28 -12q17 0 29 12
t12 29z" />
    <glyph glyph-name="Ccedilla" unicode="&#xc7;" horiz-adv-x="614" 
d="M570 35q-87 -50 -175 -50q-164 0 -269.5 103.5t-105.5 257.5q0 152 111 255.5t261 103.5q47 0 89.5 -12.5t82.5 -37.5v-110q-39 40 -76 57q-43 20 -98 20q-113 0 -196 -81t-83 -190q0 -113 84 -198t197 -85q51 0 91 17.5t87 56.5v-107zM447 -54l-97 -134l-45 25l77 136z
" />
    <glyph glyph-name="Eacute" unicode="&#xc9;" horiz-adv-x="466" 
d="M440 0h-380v700h380v-80h-288v-200h279v-80h-279v-260h288v-80zM353 866l-158 -122l-41 25l128 142z" />
    <glyph glyph-name="Ntilde" unicode="&#xd1;" horiz-adv-x="753" 
d="M675 -27l-523 539v-512h-92v725l526 -532v507h89v-727zM530 832q-17 -33 -43 -52q-31 -23 -67 -23q-23 0 -53 15q-66 33 -84 33q-19 0 -30.5 -10.5t-21.5 -32.5l-45 38q11 26 37 47q32 27 66 27q39 0 80 -24.5t58 -24.5q18 0 32 12t27 34z" />
    <glyph glyph-name="Odieresis" unicode="&#xd6;" horiz-adv-x="785" 
d="M757 350q0 -156 -103.5 -260.5t-259.5 -104.5q-157 0 -265.5 104.5t-108.5 260.5q0 149 110 257t264 108q151 0 257 -108t106 -257zM666 350q0 116 -78 198t-196 82q-123 0 -201 -81t-78 -197q0 -120 82 -200t197 -80t194.5 80.5t79.5 197.5zM540 819q0 -23 -16 -40
t-39 -17q-24 0 -41.5 16.5t-17.5 40.5q0 23 17 39t42 16q23 0 39 -16t16 -39zM358 819q0 -23 -17 -40t-40 -17q-24 0 -40.5 16.5t-16.5 40.5q0 23 16 39t41 16q23 0 40 -16t17 -39z" />
    <glyph glyph-name="Udieresis" unicode="&#xdc;" horiz-adv-x="630" 
d="M570 259q0 -120 -65 -195q-69 -79 -190 -79t-190 79q-65 74 -65 195v441h91v-429q0 -90 34 -141q41 -62 130 -62t130 61q34 51 34 142v429h91v-441zM459 819q0 -23 -16 -40t-39 -17q-24 0 -41.5 16.5t-17.5 40.5q0 23 17 39t42 16q23 0 39 -16t16 -39zM277 819
q0 -23 -17 -40t-40 -17q-24 0 -40.5 16.5t-16.5 40.5q0 23 16 39t41 16q23 0 40 -16t17 -39z" />
    <glyph glyph-name="aacute" unicode="&#xe1;" horiz-adv-x="516" 
d="M474 0h-93v66l-1 -5q-23 -31 -62 -53.5t-85 -22.5q-97 0 -157 71q-56 67 -56 164q0 93 56 158q60 69 154 69q46 0 91 -23q40 -20 58 -46l2 2v54h93v-434zM382 217q0 64 -35 106q-38 46 -101 46q-60 0 -96 -45.5t-36 -106.5t34 -105q38 -49 98 -49q63 0 101 47
q35 43 35 107zM390 636l-158 -122l-41 25l128 142z" />
    <glyph glyph-name="agrave" unicode="&#xe0;" horiz-adv-x="516" 
d="M474 0h-93v66l-1 -5q-23 -31 -62 -53.5t-85 -22.5q-97 0 -157 71q-56 67 -56 164q0 93 56 158q60 69 154 69q46 0 91 -23q40 -20 58 -46l2 2v54h93v-434zM382 217q0 64 -35 106q-38 46 -101 46q-60 0 -96 -45.5t-36 -106.5t34 -105q38 -49 98 -49q63 0 101 47
q35 43 35 107zM375 539l-41 -25l-158 122l71 45z" />
    <glyph glyph-name="acircumflex" unicode="&#xe2;" horiz-adv-x="516" 
d="M474 0h-93v66l-1 -5q-23 -31 -62 -53.5t-85 -22.5q-97 0 -157 71q-56 67 -56 164q0 93 56 158q60 69 154 69q46 0 91 -23q40 -20 58 -46l2 2v54h93v-434zM382 217q0 64 -35 106q-38 46 -101 46q-60 0 -96 -45.5t-36 -106.5t34 -105q38 -49 98 -49q63 0 101 47
q35 43 35 107zM434 553l-55 -43l-86 84l-87 -84l-53 43l140 128z" />
    <glyph glyph-name="adieresis" unicode="&#xe4;" horiz-adv-x="516" 
d="M474 0h-93v66l-1 -5q-23 -31 -62 -53.5t-85 -22.5q-97 0 -157 71q-56 67 -56 164q0 93 56 158q60 69 154 69q46 0 91 -23q40 -20 58 -46l2 2v54h93v-434zM382 217q0 64 -35 106q-38 46 -101 46q-60 0 -96 -45.5t-36 -106.5t34 -105q38 -49 98 -49q63 0 101 47
q35 43 35 107zM415 589q0 -23 -16 -40t-39 -17q-24 0 -41.5 16.5t-17.5 40.5q0 23 17 39t42 16q23 0 39 -16t16 -39zM233 589q0 -23 -17 -40t-40 -17q-24 0 -40.5 16.5t-16.5 40.5q0 23 16 39t41 16q23 0 40 -16t17 -39z" />
    <glyph glyph-name="atilde" unicode="&#xe3;" horiz-adv-x="516" 
d="M474 0h-93v66l-1 -5q-23 -31 -62 -53.5t-85 -22.5q-97 0 -157 71q-56 67 -56 164q0 93 56 158q60 69 154 69q46 0 91 -23q40 -20 58 -46l2 2v54h93v-434zM382 217q0 64 -35 106q-38 46 -101 46q-60 0 -96 -45.5t-36 -106.5t34 -105q38 -49 98 -49q63 0 101 47
q35 43 35 107zM445 602q-17 -33 -43 -52q-31 -23 -67 -23q-23 0 -53 15q-66 33 -84 33q-19 0 -30.5 -10.5t-21.5 -32.5l-45 38q11 26 37 47q32 27 66 27q39 0 80 -24.5t58 -24.5q18 0 32 12t27 34z" />
    <glyph glyph-name="aring" unicode="&#xe5;" horiz-adv-x="516" 
d="M474 0h-93v66l-1 -5q-23 -31 -62 -53.5t-85 -22.5q-97 0 -157 71q-56 67 -56 164q0 93 56 158q60 69 154 69q46 0 91 -23q40 -20 58 -46l2 2v54h93v-434zM382 217q0 64 -35 106q-38 46 -101 46q-60 0 -96 -45.5t-36 -106.5t34 -105q38 -49 98 -49q63 0 101 47
q35 43 35 107zM326 597q0 -34 -23 -57t-58 -23q-33 0 -56 23t-23 57q0 32 23 56t56 24q34 0 57.5 -23.5t23.5 -56.5zM286 597q0 17 -12 28t-29 11q-16 0 -28 -11t-12 -28t12 -29t28 -12q17 0 29 12t12 29z" />
    <glyph glyph-name="ccedilla" unicode="&#xe7;" horiz-adv-x="409" 
d="M383 16q-58 -31 -125 -31q-100 0 -168.5 65.5t-68.5 163.5q0 101 69 167t173 66q32 0 62.5 -7.5t57.5 -22.5v-103q-34 26 -65.5 38.5t-66.5 12.5q-57 0 -98 -45t-41 -103q0 -64 41 -107t104 -43q24 0 52 10t74 43v-104zM309 -62l-97 -134l-45 25l77 136z" />
    <glyph glyph-name="eacute" unicode="&#xe9;" horiz-adv-x="463" 
d="M443 201h-333q0 -54 37.5 -97t92.5 -43q44 0 75.5 24.5t57.5 69.5l69 -42q-35 -61 -87 -94.5t-116 -33.5q-100 0 -159 64t-59 165q0 103 57.5 168t158.5 65q97 0 154 -69q52 -63 52 -160v-17zM351 265q-8 50 -37.5 77.5t-78.5 27.5t-81.5 -28.5t-38.5 -76.5h236zM335 636
l-158 -122l-41 25l128 142z" />
    <glyph glyph-name="egrave" unicode="&#xe8;" horiz-adv-x="463" 
d="M443 201h-333q0 -54 37.5 -97t92.5 -43q44 0 75.5 24.5t57.5 69.5l69 -42q-35 -61 -87 -94.5t-116 -33.5q-100 0 -159 64t-59 165q0 103 57.5 168t158.5 65q97 0 154 -69q52 -63 52 -160v-17zM351 265q-8 50 -37.5 77.5t-78.5 27.5t-81.5 -28.5t-38.5 -76.5h236zM332 539
l-41 -25l-158 122l71 45z" />
    <glyph glyph-name="ecircumflex" unicode="&#xea;" horiz-adv-x="463" 
d="M443 201h-333q0 -54 37.5 -97t92.5 -43q44 0 75.5 24.5t57.5 69.5l69 -42q-35 -61 -87 -94.5t-116 -33.5q-100 0 -159 64t-59 165q0 103 57.5 168t158.5 65q97 0 154 -69q52 -63 52 -160v-17zM351 265q-8 50 -37.5 77.5t-78.5 27.5t-81.5 -28.5t-38.5 -76.5h236zM373 553
l-55 -43l-86 84l-87 -84l-53 43l140 128z" />
    <glyph glyph-name="edieresis" unicode="&#xeb;" horiz-adv-x="463" 
d="M443 201h-333q0 -54 37.5 -97t92.5 -43q44 0 75.5 24.5t57.5 69.5l69 -42q-35 -61 -87 -94.5t-116 -33.5q-100 0 -159 64t-59 165q0 103 57.5 168t158.5 65q97 0 154 -69q52 -63 52 -160v-17zM351 265q-8 50 -37.5 77.5t-78.5 27.5t-81.5 -28.5t-38.5 -76.5h236zM375 589
q0 -23 -16 -40t-39 -17q-24 0 -41.5 16.5t-17.5 40.5q0 23 17 39t42 16q23 0 39 -16t16 -39zM193 589q0 -23 -17 -40t-40 -17q-24 0 -40.5 16.5t-16.5 40.5q0 23 16 39t41 16q23 0 40 -16t17 -39z" />
    <glyph glyph-name="iacute" unicode="&#xed;" horiz-adv-x="236" 
d="M152 0h-92v434h92v-434zM218 636l-158 -122l-41 25l128 142z" />
    <glyph glyph-name="igrave" unicode="&#xec;" horiz-adv-x="236" 
d="M152 0h-92v434h92v-434zM218 539l-41 -25l-158 122l71 45z" />
    <glyph glyph-name="icircumflex" unicode="&#xee;" horiz-adv-x="236" 
d="M152 0h-92v434h92v-434zM259 553l-55 -43l-86 84l-87 -84l-53 43l140 128z" />
    <glyph glyph-name="idieresis" unicode="&#xef;" horiz-adv-x="236" 
d="M152 0h-92v434h92v-434zM264 589q0 -23 -16 -40t-39 -17q-24 0 -41.5 16.5t-17.5 40.5q0 23 17 39t42 16q23 0 39 -16t16 -39zM82 589q0 -23 -17 -40t-40 -17q-24 0 -40.5 16.5t-16.5 40.5q0 23 16 39t41 16q23 0 40 -16t17 -39z" />
    <glyph glyph-name="ntilde" unicode="&#xf1;" horiz-adv-x="494" 
d="M434 0h-92v246q0 64 -12 87q-18 34 -74 34q-69 0 -91 -47q-13 -28 -13 -102v-218h-92v434h92v-55q21 33 53.5 52t73.5 19q88 0 125 -56q30 -45 30 -137v-257zM420 602q-17 -33 -43 -52q-31 -23 -67 -23q-23 0 -53 15q-66 33 -84 33q-19 0 -30.5 -10.5t-21.5 -32.5l-45 38
q11 26 37 47q32 27 66 27q39 0 80 -24.5t58 -24.5q18 0 32 12t27 34z" />
    <glyph glyph-name="oacute" unicode="&#xf3;" horiz-adv-x="505" 
d="M485 216q0 -99 -66 -165t-167 -66q-100 0 -166 66t-66 165t66 165t166 66q99 0 166 -66t67 -165zM399 216q0 63 -42.5 107.5t-104.5 44.5t-104.5 -44.5t-42.5 -107.5q0 -60 42.5 -105.5t104.5 -45.5t104.5 44.5t42.5 106.5zM352 636l-158 -122l-41 25l128 142z" />
    <glyph glyph-name="ograve" unicode="&#xf2;" horiz-adv-x="505" 
d="M485 216q0 -99 -66 -165t-167 -66q-100 0 -166 66t-66 165t66 165t166 66q99 0 166 -66t67 -165zM399 216q0 63 -42.5 107.5t-104.5 44.5t-104.5 -44.5t-42.5 -107.5q0 -60 42.5 -105.5t104.5 -45.5t104.5 44.5t42.5 106.5zM343 539l-41 -25l-158 122l71 45z" />
    <glyph glyph-name="ocircumflex" unicode="&#xf4;" horiz-adv-x="505" 
d="M485 216q0 -99 -66 -165t-167 -66q-100 0 -166 66t-66 165t66 165t166 66q99 0 166 -66t67 -165zM399 216q0 63 -42.5 107.5t-104.5 44.5t-104.5 -44.5t-42.5 -107.5q0 -60 42.5 -105.5t104.5 -45.5t104.5 44.5t42.5 106.5zM393 553l-55 -43l-86 84l-87 -84l-53 43
l140 128z" />
    <glyph glyph-name="odieresis" unicode="&#xf6;" horiz-adv-x="505" 
d="M485 216q0 -99 -66 -165t-167 -66q-100 0 -166 66t-66 165t66 165t166 66q99 0 166 -66t67 -165zM399 216q0 63 -42.5 107.5t-104.5 44.5t-104.5 -44.5t-42.5 -107.5q0 -60 42.5 -105.5t104.5 -45.5t104.5 44.5t42.5 106.5zM398 589q0 -23 -16 -40t-39 -17
q-24 0 -41.5 16.5t-17.5 40.5q0 23 17 39t42 16q23 0 39 -16t16 -39zM216 589q0 -23 -17 -40t-40 -17q-24 0 -40.5 16.5t-16.5 40.5q0 23 16 39t41 16q23 0 40 -16t17 -39z" />
    <glyph glyph-name="otilde" unicode="&#xf5;" horiz-adv-x="505" 
d="M485 216q0 -99 -66 -165t-167 -66q-100 0 -166 66t-66 165t66 165t166 66q99 0 166 -66t67 -165zM399 216q0 63 -42.5 107.5t-104.5 44.5t-104.5 -44.5t-42.5 -107.5q0 -60 42.5 -105.5t104.5 -45.5t104.5 44.5t42.5 106.5zM422 602q-17 -33 -43 -52q-31 -23 -67 -23
q-23 0 -53 15q-66 33 -84 33q-19 0 -30.5 -10.5t-21.5 -32.5l-45 38q11 26 37 47q32 27 66 27q39 0 80 -24.5t58 -24.5q18 0 32 12t27 34z" />
    <glyph glyph-name="uacute" unicode="&#xfa;" horiz-adv-x="475" 
d="M423 186q0 -94 -43 -145q-47 -56 -142 -56t-140.5 53t-45.5 148v248h92v-251q0 -57 17 -84q22 -35 77 -35t76 34q17 27 17 84v252h92v-248zM341 636l-158 -122l-41 25l128 142z" />
    <glyph glyph-name="ugrave" unicode="&#xf9;" horiz-adv-x="475" 
d="M423 186q0 -94 -43 -145q-47 -56 -142 -56t-140.5 53t-45.5 148v248h92v-251q0 -57 17 -84q22 -35 77 -35t76 34q17 27 17 84v252h92v-248zM329 539l-41 -25l-158 122l71 45z" />
    <glyph glyph-name="ucircumflex" unicode="&#xfb;" horiz-adv-x="475" 
d="M423 186q0 -94 -43 -145q-47 -56 -142 -56t-140.5 53t-45.5 148v248h92v-251q0 -57 17 -84q22 -35 77 -35t76 34q17 27 17 84v252h92v-248zM373 553l-55 -43l-86 84l-87 -84l-53 43l140 128z" />
    <glyph glyph-name="udieresis" unicode="&#xfc;" horiz-adv-x="475" 
d="M423 186q0 -94 -43 -145q-47 -56 -142 -56t-140.5 53t-45.5 148v248h92v-251q0 -57 17 -84q22 -35 77 -35t76 34q17 27 17 84v252h92v-248zM387 589q0 -23 -16 -40t-39 -17q-24 0 -41.5 16.5t-17.5 40.5q0 23 17 39t42 16q23 0 39 -16t16 -39zM205 589q0 -23 -17 -40
t-40 -17q-24 0 -40.5 16.5t-16.5 40.5q0 23 16 39t41 16q23 0 40 -16t17 -39z" />
    <glyph glyph-name="cent" unicode="&#xa2;" horiz-adv-x="423" 
d="M396 152q-31 -12 -58 -20.5t-50 -8.5l-11 -1v-77h-53v82q-83 14 -138.5 76t-55.5 147t55.5 150.5t138.5 80.5v73h53v-68q30 0 61.5 -8t57.5 -23v-103q-12 10 -20 16q-51 35 -99 35v-298q35 4 66.5 18.5t52.5 35.5v-107zM224 212v282q-43 -12 -72.5 -52.5t-29.5 -87.5
q0 -52 27.5 -91t74.5 -51z" />
    <glyph glyph-name="sterling" unicode="&#xa3;" 
d="M552 111q-23 -54 -62 -87q-44 -37 -95 -37q-29 0 -62 9q-18 5 -62 21q-27 12 -56.5 20.5t-49.5 8.5q-29 0 -47.5 -15.5t-29.5 -45.5l-75 45q28 49 57 74q36 31 79 31q12 36 12 72q0 39 -18 69h-122v60h90q-22 39 -35 79q-16 48 -16 84q0 90 71 153t163 63q101 0 165 -61
t64 -160l-91 -28l-3 25q-7 57 -40 94q-37 41 -91 41q-62 0 -103 -38t-41 -96q0 -46 31 -103q15 -27 31 -53h141v-60h-113q10 -36 10 -71q0 -17 -3 -37.5t-8 -40.5l64 -23q21 -9 45 -18t41 -9q23 0 44 24q7 8 32 47z" />
    <glyph glyph-name="section" unicode="&#xa7;" horiz-adv-x="532" 
d="M502 345q0 -44 -21.5 -85.5t-57.5 -69.5q46 -48 46 -112q0 -82 -59.5 -132t-143.5 -50q-76 0 -151 49q-24 16 -59 49l52 72q21 -24 77 -54.5t80 -30.5q44 0 77 28t33 71q0 34 -30 59q-16 13 -61 37l-131 63q-63 31 -87 55q-36 36 -36 94q0 47 24 85q20 31 63 64
q-39 47 -39 101q0 70 55.5 116t129.5 46q56 0 106 -16q62 -20 83 -56l-50 -70q-18 29 -60.5 47t-80.5 18q-37 0 -63 -25t-26 -61q0 -33 23 -55q16 -15 53 -33l123 -62q62 -30 88 -53q43 -38 43 -89zM410 328q0 28 -21 48q-15 14 -47 28l-168 85q-51 -35 -51 -93
q0 -23 13 -38.5t63 -42.5l159 -79q24 16 38 41t14 51z" />
    <glyph glyph-name="bullet" unicode="&#x2022;" 
d="M449 350q0 -73 -53 -124t-128 -51q-74 0 -126.5 50.5t-52.5 124.5q0 73 52 124t127 51t128 -51t53 -124z" />
    <glyph glyph-name="paragraph" unicode="&#xb6;" horiz-adv-x="0" 
 />
    <glyph glyph-name="germandbls" unicode="&#xdf;" horiz-adv-x="562" 
d="M532 246q0 -115 -86 -190q-81 -71 -189 -71l1 87q67 0 120 45q59 50 59 127q0 76 -58 120q-51 39 -122 39l1 92q54 0 90 40q33 36 33 85q0 50 -33 80t-86 30q-51 0 -80.5 -39.5t-29.5 -105.5v-585h-92v354h-38v80h38v186q0 82 57 140t145 58q93 0 152 -57t59 -141
q0 -59 -16.5 -92.5t-60.5 -65.5q57 -24 93 -74q43 -60 43 -142z" />
    <glyph glyph-name="registered" unicode="&#xae;" horiz-adv-x="669" 
d="M668 315q0 -138 -97 -233t-237 -95t-236.5 95.5t-96.5 232.5q0 138 96 233t237 95q140 0 237 -95t97 -233zM606 315q0 112 -80 189t-192 77t-191.5 -76.5t-79.5 -189.5q0 -111 79.5 -188.5t191.5 -77.5t192 77t80 189zM494 399q0 -51 -29 -78q-25 -24 -67 -28l93 -167
h-69l-94 167h-63v-167h-63v373h161q59 0 91 -20q40 -25 40 -80zM432 392q0 29 -24 39q-15 6 -55 6h-88v-82h53q10 0 20 -0.5t20 -0.5q35 0 51 6q23 9 23 32z" />
    <glyph glyph-name="copyright" unicode="&#xa9;" horiz-adv-x="669" 
d="M668 315q0 -138 -97 -233t-237 -95t-236.5 95.5t-96.5 232.5q0 138 96 233t237 95q140 0 237 -95t97 -233zM606 315q0 112 -80 189t-192 77t-191.5 -76.5t-79.5 -189.5q0 -111 79.5 -188.5t191.5 -77.5t192 77t80 189zM507 262q-8 -63 -53 -99t-107 -36
q-84 0 -135.5 54.5t-51.5 136.5q0 84 50 137t136 53q61 0 104.5 -34.5t56.5 -96.5h-61q-7 34 -33.5 52t-66.5 18q-62 0 -95 -40q-29 -35 -29 -88q0 -57 33 -94t92 -37q82 0 99 74h61z" />
    <glyph glyph-name="trademark" unicode="&#x2122;" horiz-adv-x="786" 
d="M761 278h-62v292h7l-121 -292h-40l-117 292h7v-292h-62v352h95l97 -234l101 234h95v-352zM317 570h-115v-292h-63v292h-115v60h293v-60z" />
    <glyph glyph-name="acute" unicode="&#xb4;" horiz-adv-x="0" 
d="M292 636l-158 -122l-41 25l128 142z" />
    <glyph glyph-name="dieresis" unicode="&#xa8;" horiz-adv-x="0" 
d="M372 589q0 -23 -16 -40t-39 -17q-24 0 -41.5 16.5t-17.5 40.5q0 23 17 39t42 16q23 0 39 -16t16 -39zM190 589q0 -23 -17 -40t-40 -17q-24 0 -40.5 16.5t-16.5 40.5q0 23 16 39t41 16q23 0 40 -16t17 -39z" />
    <glyph glyph-name="notequal" unicode="&#x2260;" horiz-adv-x="614" 
d="M570 35q-87 -50 -175 -50q-164 0 -269.5 103.5t-105.5 257.5q0 152 111 255.5t261 103.5q47 0 89.5 -12.5t82.5 -37.5v-110q-39 40 -76 57q-43 20 -98 20q-113 0 -196 -81t-83 -190q0 -113 84 -198t197 -85q51 0 91 17.5t87 56.5v-107zM517 783l-55 -43l-86 84l-87 -84
l-53 43l140 128z" />
    <glyph glyph-name="AE" unicode="&#xc6;" horiz-adv-x="932" 
d="M924 0h-382l-45 179h-290l-109 -179h-106l395 634l-18 66h380l20 -80h-291l55 -200h277l20 -80h-275l71 -260h278zM476 259l-66 257l-155 -257h221z" />
    <glyph glyph-name="Oslash" unicode="&#xd8;" horiz-adv-x="777" 
d="M757 350q0 -156 -103.5 -260.5t-259.5 -104.5q-118 0 -213 63l-81 -95l-67 35l91 106q-49 50 -76.5 115.5t-27.5 140.5q0 149 110 257t264 108q57 0 108.5 -16.5t96.5 -47.5l64 75l68 -35l-75 -89q48 -50 74.5 -115t26.5 -137zM666 350q0 106 -67 186l-360 -420
q71 -44 153 -44q115 0 194.5 80.5t79.5 197.5zM543 586q-66 44 -151 44q-123 0 -201 -81t-78 -197q0 -55 18.5 -103t51.5 -85z" />
    <glyph glyph-name="infinity" unicode="&#x221e;" horiz-adv-x="409" 
d="M383 16q-58 -31 -125 -31q-100 0 -168.5 65.5t-68.5 163.5q0 101 69 167t173 66q32 0 62.5 -7.5t57.5 -22.5v-103q-34 26 -65.5 38.5t-66.5 12.5q-57 0 -98 -45t-41 -103q0 -64 41 -107t104 -43q24 0 52 10t74 43v-104zM373 553l-55 -43l-86 84l-87 -84l-53 43l140 128z
" />
    <glyph glyph-name="lessequal" unicode="&#x2264;" horiz-adv-x="742" 
d="M722 322q0 -146 -93.5 -241.5t-244.5 -95.5q-150 0 -257 108t-107 255q0 152 108.5 259.5t264.5 107.5q172 0 291 -144l-72 -61q-38 51 -97 84q-64 36 -124 36q-121 0 -201 -79t-80 -200q0 -115 81 -197t197 -82q90 0 154 55t72 138h-164v88h272v-31zM517 783l-55 -43
l-86 84l-87 -84l-53 43l140 128z" />
    <glyph glyph-name="greaterequal" unicode="&#x2265;" horiz-adv-x="520" 
d="M471 9q0 -55 -10.5 -101.5t-35.5 -82.5q-28 -40 -74 -63.5t-104 -23.5q-81 0 -138 40q-63 44 -63 119h93q0 -46 34 -66q27 -16 78 -16q68 0 101 51q27 42 27 115v73q-19 -25 -57 -46q-46 -26 -89 -26q-98 0 -157 71q-55 66 -55 165q0 94 57.5 161t151.5 67q49 0 88 -21
t59 -53l2 62h92v-425zM384 215q0 64 -36 107q-39 47 -102 47q-60 0 -98 -46.5t-38 -107.5t37.5 -108.5t98.5 -47.5q64 0 101 45.5t37 110.5zM391 553l-55 -43l-86 84l-87 -84l-53 43l140 128z" />
    <glyph glyph-name="yen" unicode="&#xa5;" horiz-adv-x="532" 
d="M542 700l-142 -243h111v-67h-149l-50 -85l199 -1v-68h-199v-236h-91v236h-195v68h195l-50 86h-145v67h106l-142 243h107l171 -291l167 291h107z" />
    <glyph glyph-name="mu" unicode="&#xb5;" horiz-adv-x="475" 
d="M432 184q0 -95 -42 -145q-46 -55 -141 -55q-55 0 -97 31v-264h-92v683h92v-241q0 -59 18 -90q24 -41 79 -41q54 0 75 40q16 31 16 91v241h92v-250z" />
    <glyph glyph-name="partialdiff" unicode="&#x2202;" horiz-adv-x="638" 
d="M571 0h-91v340h-328v-340h-92v700h92v-280h328v280h91v-700zM454 783l-55 -43l-86 84l-87 -84l-53 43l140 128z" />
    <glyph glyph-name="summation" unicode="&#x3a3;" horiz-adv-x="486" 
d="M434 0h-92v251q0 63 -12 86q-17 33 -73 33q-69 0 -91 -47q-14 -30 -14 -105v-218h-92v778h92v-393q17 29 52.5 47t76.5 18q86 0 124 -58q29 -44 29 -122v-270zM436 783l-55 -43l-86 84l-87 -84l-53 43l140 128z" />
    <glyph glyph-name="product" unicode="&#x220f;" horiz-adv-x="339" 
d="M367 783l-55 -43l-86 84l-87 -84l-53 43l140 128zM276 257q0 -124 -32 -187q-43 -85 -152 -85q-24 0 -50.5 6t-47.5 19l55 78q13 -10 22 -13t25 -3q57 0 77 68q11 38 11 117v443h92v-443z" />
    <glyph glyph-name="pi" unicode="&#x3c0;" horiz-adv-x="212" 
d="M152 -249h-92v683h92v-683zM248 553l-55 -43l-86 84l-87 -84l-53 43l140 128z" />
    <glyph glyph-name="integral" unicode="&#x222b;" horiz-adv-x="510" 
d="M480 207q0 -96 -68 -159t-168 -63q-67 0 -131 36q-25 14 -83 59l53 73q55 -42 79 -56q45 -25 91 -25q57 0 94 35t37 88q0 50 -47 84q-24 17 -91 43l-50 19q-70 27 -103 66q-38 45 -38 118q0 85 59.5 137.5t144.5 52.5q60 0 104 -16.5t84 -53.5l-52 -71q-27 31 -65 47.5
t-75 16.5q-43 0 -73.5 -32.5t-30.5 -74.5q0 -40 25 -67q20 -21 55 -35l51 -20q123 -47 163 -95q35 -43 35 -107zM409 783l-55 -43l-86 84l-87 -84l-53 43l140 128z" />
    <glyph glyph-name="ordfeminine" unicode="&#xaa;" horiz-adv-x="347" 
d="M318 444h-65v32q-12 -15 -37.5 -28t-54.5 -13q-65 0 -103 41t-38 101q0 57 38.5 97.5t100.5 40.5q30 0 55 -13q20 -10 38 -30l1 34h65v-262zM318 342h-298v53h298v-53zM256 575q0 37 -22.5 61.5t-64.5 24.5q-38 0 -61 -25t-23 -61t22.5 -61.5t61.5 -25.5q40 0 63.5 25.5
t23.5 61.5z" />
    <glyph glyph-name="ordmasculine" unicode="&#xba;" horiz-adv-x="357" 
d="M336 575q0 -60 -45 -100t-112 -40q-65 0 -110 40t-45 100q0 59 44.5 99.5t110.5 40.5t111.5 -40.5t45.5 -99.5zM336 342h-312v53h312v-53zM271 575q0 34 -27 59t-65 25t-64 -24t-26 -60q0 -34 26.5 -58.5t63.5 -24.5q39 0 65.5 24.5t26.5 58.5z" />
    <glyph glyph-name="Omega" unicode="&#x3a9;" horiz-adv-x="356" 
d="M325 132q0 -67 -46 -109q-42 -38 -99 -38q-52 0 -84.5 18.5t-73.5 63.5l68 40q31 -48 89 -48q25 0 44.5 17.5t19.5 42.5q0 32 -28 47l-84 42q-35 18 -49 30q-34 29 -34 81q0 55 38.5 91.5t94.5 36.5q44 0 73.5 -12.5t54.5 -46.5l-61 -48q-10 20 -27.5 28.5t-38.5 8.5
q-19 0 -37 -13.5t-18 -37.5q0 -28 43 -50q35 -16 53 -24q50 -22 71 -42q31 -30 31 -78zM322 553l-55 -43l-86 84l-87 -84l-53 43l140 128z" />
    <glyph glyph-name="ae" unicode="&#xe6;" horiz-adv-x="757" 
d="M737 201h-333q0 -54 37.5 -97t92.5 -43q44 0 75.5 24.5t57.5 69.5l69 -42q-35 -61 -87 -94.5t-116 -33.5q-55 0 -96.5 18.5t-71.5 55.5q-27 -36 -71 -55t-93 -19q-73 0 -124 35q-58 40 -58 109t50 107.5t123 38.5q40 0 68 -6.5t55 -26.5v20q0 108 -109 108
q-33 0 -62 -4.5t-62 -14.5v83q32 7 67.5 10t68.5 3q46 0 86.5 -16.5t62.5 -50.5l2 -3q28 33 69.5 51.5t92.5 18.5q97 0 154 -69q52 -63 52 -160v-17zM645 265q-8 50 -37.5 77.5t-78.5 27.5t-81.5 -28.5t-38.5 -76.5h236zM311 134q0 33 -38 50q-29 13 -68 13q-36 0 -67 -16.5
t-31 -49.5t35 -53q30 -17 66 -17t67 18q36 21 36 55z" />
    <glyph glyph-name="oslash" unicode="&#xf8;" horiz-adv-x="501" 
d="M496 419l-60 -58q49 -63 49 -145q0 -99 -66 -165t-167 -66q-87 0 -150 52l-58 -57l-37 36l59 58q-22 30 -34 65.5t-12 76.5q0 99 66 165t166 66q42 0 80 -13t68 -37l60 59zM339 338q-38 30 -87 30q-62 0 -104.5 -44.5t-42.5 -107.5q0 -43 23 -82zM399 216q0 46 -25 84
l-211 -204q39 -31 89 -31q62 0 104.5 44.5t42.5 106.5z" />
    <glyph glyph-name="questiondown" unicode="&#xbf;" horiz-adv-x="421" 
d="M270 390q0 -25 -16.5 -41.5t-41.5 -16.5q-24 0 -40.5 16.5t-16.5 41.5q0 24 16 40t41 16q24 0 41 -16t17 -40zM379 -132q0 -61 -49.5 -106.5t-122.5 -45.5q-74 0 -120.5 47.5t-46.5 122.5q0 44 23 79.5t60 51.5l96 40q29 12 40 21q18 15 18 38q0 27 -19.5 47.5
t-45.5 20.5q-59 0 -67 -74l-87 6q0 61 44 105t106 44q67 0 113.5 -44.5t46.5 -109.5q0 -62 -38 -96q-25 -22 -87 -44.5t-76 -30.5q-38 -22 -38 -59q0 -33 24 -56t57 -23q83 0 83 101l86 -6v-29z" />
    <glyph glyph-name="exclamdown" unicode="&#xa1;" horiz-adv-x="298" 
d="M207 389q0 -25 -16.5 -41.5t-41.5 -16.5q-24 0 -40.5 16.5t-16.5 41.5q0 24 16 40t41 16q24 0 41 -16t17 -40zM194 -270h-91v543h91v-543z" />
    <glyph glyph-name="radical" unicode="&#x221a;" horiz-adv-x="778" 
d="M718 0h-92v434h92v-434zM718 586h-92v14q0 63 -23 93t-75 30q-50 0 -71.5 -28.5t-21.5 -94.5v-166h106v-80h-106v-354h-92v354h-191v-354h-92v354h-38v80h38v166q0 101 45.5 151.5t141.5 50.5q33 0 73 -14t67 -40q46 54 140 54q92 0 141.5 -52.5t49.5 -149.5v-14z
M343 434v166q0 59 -18 87q-23 36 -78 36t-77 -34q-18 -28 -18 -89v-166h191z" />
    <glyph glyph-name="florin" unicode="&#x192;" horiz-adv-x="565" 
d="M568 705q-15 8 -31 11.5t-30 3.5q-39 0 -55.5 -33.5t-16.5 -86.5v-166h129v-80h-129v-354h-92v354h-191v-354h-92v354h-38v80h38v166q0 101 45.5 151.5t141.5 50.5q38 0 73 -10.5t62 -36.5q19 22 47 33.5t67 11.5q38 0 45 -1t27 -8v-86zM343 434v166q0 57 -17 85
q-23 38 -79 38q-55 0 -77 -34q-18 -28 -18 -89v-166h191z" />
    <glyph glyph-name="approxequal" unicode="&#x2248;" horiz-adv-x="630" 
d="M570 259q0 -120 -65 -195q-69 -79 -190 -79t-190 79q-65 74 -65 195v441h91v-429q0 -90 34 -141q41 -62 130 -62t130 61q34 51 34 142v429h91v-441zM462 842q-11 -57 -51.5 -88t-94.5 -31q-53 0 -91 29q-42 32 -54 90h60q13 -32 32 -44.5t53 -12.5t53.5 12t32.5 45h60z
" />
    <glyph glyph-name="Delta" unicode="&#x2206;" horiz-adv-x="475" 
d="M423 186q0 -94 -43 -145q-47 -56 -142 -56t-140.5 53t-45.5 148v248h92v-251q0 -57 17 -84q22 -35 77 -35t76 34q17 27 17 84v252h92v-248zM384 644q-11 -57 -51.5 -88t-94.5 -31q-53 0 -91 29q-42 32 -54 90h60q13 -32 32 -44.5t53 -12.5t53.5 12t32.5 45h60z" />
    <glyph glyph-name="ellipsis" unicode="&#x2026;" horiz-adv-x="705" 
d="M645 41q0 -24 -16 -40t-41 -16q-24 0 -41 16t-17 40q0 25 16.5 41.5t41.5 16.5q24 0 40.5 -16.5t16.5 -41.5zM410 41q0 -24 -16 -40t-41 -16q-24 0 -41 16t-17 40q0 25 16.5 41.5t41.5 16.5q24 0 40.5 -16.5t16.5 -41.5zM175 41q0 -24 -16 -40t-41 -16q-24 0 -41 16
t-17 40q0 25 16.5 41.5t41.5 16.5q24 0 40.5 -16.5t16.5 -41.5z" />
    <glyph glyph-name="Agrave" unicode="&#xc0;" horiz-adv-x="640" 
d="M648 0h-106l-77 179h-290l-77 -179h-106l327 730zM430 259l-111 257l-110 -257h221zM400 769l-41 -25l-158 122l71 45z" />
    <glyph glyph-name="Atilde" unicode="&#xc3;" horiz-adv-x="640" 
d="M648 0h-106l-77 179h-290l-77 -179h-106l327 730zM430 259l-111 257l-110 -257h221zM497 832q-17 -33 -43 -52q-31 -23 -67 -23q-23 0 -53 15q-66 33 -84 33q-19 0 -30.5 -10.5t-21.5 -32.5l-45 38q11 26 37 47q32 27 66 27q39 0 80 -24.5t58 -24.5q18 0 32 12t27 34z
" />
    <glyph glyph-name="Otilde" unicode="&#xd5;" horiz-adv-x="785" 
d="M757 350q0 -156 -103.5 -260.5t-259.5 -104.5q-157 0 -265.5 104.5t-108.5 260.5q0 149 110 257t264 108q151 0 257 -108t106 -257zM666 350q0 116 -78 198t-196 82q-123 0 -201 -81t-78 -197q0 -120 82 -200t197 -80t194.5 80.5t79.5 197.5zM545 832q-17 -33 -43 -52
q-31 -23 -67 -23q-23 0 -53 15q-66 33 -84 33q-19 0 -30.5 -10.5t-21.5 -32.5l-45 38q11 26 37 47q32 27 66 27q39 0 80 -24.5t58 -24.5q18 0 32 12t27 34z" />
    <glyph glyph-name="OE" unicode="&#x152;" horiz-adv-x="1063" 
d="M1037 0h-374v99q-50 -55 -118.5 -84.5t-150.5 -29.5q-157 0 -265.5 104.5t-108.5 260.5q0 149 110 257t264 108q81 0 149 -31.5t120 -89.5v106h374v-80h-282v-200h273v-80h-271l-2 -260h282v-80zM666 350q0 116 -78 198t-196 82q-123 0 -201 -81t-78 -197q0 -120 82 -200
t197 -80t194.5 80.5t79.5 197.5z" />
    <glyph glyph-name="oe" unicode="&#x153;" horiz-adv-x="840" 
d="M823 201h-333q0 -54 37.5 -97t92.5 -43q44 0 75.5 24.5t57.5 69.5l69 -42q-35 -61 -87 -94.5t-116 -33.5q-59 0 -105.5 23.5t-74.5 66.5q-32 -43 -80 -66.5t-107 -23.5q-100 0 -166 66t-66 165t66 165t166 66q59 0 107 -23.5t80 -67.5q27 42 73 66.5t105 24.5
q97 0 154 -69q52 -63 52 -160v-17zM731 265q-8 50 -37.5 77.5t-78.5 27.5t-81.5 -28.5t-38.5 -76.5h236zM399 216q0 63 -42.5 107.5t-104.5 44.5t-104.5 -44.5t-42.5 -107.5q0 -60 42.5 -105.5t104.5 -45.5t104.5 44.5t42.5 106.5z" />
    <glyph glyph-name="endash" unicode="&#x2013;" horiz-adv-x="464" 
d="M464 263h-464v69h464v-69z" />
    <glyph glyph-name="emdash" unicode="&#x2014;" horiz-adv-x="928" 
d="M928 263h-928v69h928v-69z" />
    <glyph glyph-name="quotedblleft" unicode="&#x201c;" horiz-adv-x="392" 
d="M335 590h-41q-11 0 -13 -2q-3 -3 -3 -14q0 -30 10.5 -52t40.5 -50l-31 -42q-34 22 -56 61t-22 79v130h115v-110zM175 590h-41q-11 0 -13 -2q-3 -3 -3 -14q0 -30 10.5 -52t40.5 -50l-31 -42q-34 22 -56 61t-22 79v130h115v-110z" />
    <glyph glyph-name="quotedblright" unicode="&#x201d;" horiz-adv-x="392" 
d="M335 570q0 -41 -21 -78.5t-57 -61.5l-31 42q30 28 40.5 50t10.5 52q0 13 -5 15q-2 1 -11 1h-41v110h115v-130zM175 570q0 -41 -21 -78.5t-57 -61.5l-31 42q30 28 40.5 50t10.5 52q0 13 -5 15q-2 1 -11 1h-41v110h115v-130z" />
    <glyph glyph-name="quoteleft" unicode="&#x2018;" horiz-adv-x="245" 
d="M175 590h-41q-11 0 -13 -2q-3 -3 -3 -14q0 -30 10.5 -52t40.5 -50l-31 -42q-34 22 -56 61t-22 79v130h115v-110z" />
    <glyph glyph-name="quoteright" unicode="&#x2019;" horiz-adv-x="245" 
d="M175 570q0 -41 -21 -78.5t-57 -61.5l-31 42q30 28 40.5 50t10.5 52q0 13 -5 15q-2 1 -11 1h-41v110h115v-130z" />
    <glyph glyph-name="lozenge" unicode="&#x25ca;" horiz-adv-x="778" 
d="M713 0h-92v600q0 60 -18 88q-22 35 -76 35q-56 0 -76 -35q-16 -27 -16 -88v-166h106v-80h-106v-354h-92v354h-191v-354h-92v354h-38v80h38v166q0 101 45.5 151.5t141.5 50.5q34 0 74 -14t67 -40q41 54 139 54q92 0 139 -52t47 -150v-600zM343 434v166q0 59 -18 87
q-23 36 -78 36t-77 -34q-18 -28 -18 -89v-166h191z" />
    <glyph glyph-name="ydieresis" unicode="&#xff;" horiz-adv-x="449" 
d="M464 434l-351 -683h-95l170 329l-204 354h103l146 -266l133 266h98zM379 589q0 -23 -16 -40t-39 -17q-24 0 -41.5 16.5t-17.5 40.5q0 23 17 39t42 16q23 0 39 -16t16 -39zM197 589q0 -23 -17 -40t-40 -17q-24 0 -40.5 16.5t-16.5 40.5q0 23 16 39t41 16q23 0 40 -16
t17 -39z" />
    <glyph glyph-name="Ydieresis" unicode="&#x178;" horiz-adv-x="532" 
d="M542 700l-230 -395v-305h-91v304l-231 396h107l169 -291l169 291h107zM417 819q0 -23 -16 -40t-39 -17q-24 0 -41.5 16.5t-17.5 40.5q0 23 17 39t42 16q23 0 39 -16t16 -39zM235 819q0 -23 -17 -40t-40 -17q-24 0 -40.5 16.5t-16.5 40.5q0 23 16 39t41 16q23 0 40 -16
t17 -39z" />
    <glyph glyph-name="fraction" unicode="&#x2215;" horiz-adv-x="153" 
d="M304 691l-408 -706l-47 26l408 704z" />
    <glyph glyph-name="currency" unicode="&#xa4;" 
d="M503 278q0 -67 -39 -131l37 -41l-53 -54l-41 39q-31 -22 -64 -33.5t-75 -11.5q-40 0 -74 11.5t-64 33.5l-41 -39l-53 54l38 41q-39 59 -39 131q0 74 39 135l-38 40l53 54l41 -39q30 21 62.5 32t75.5 11q42 0 74 -10.5t65 -32.5l41 39l53 -54l-37 -40q20 -33 29.5 -65
t9.5 -70zM433 278q0 68 -47 113t-118 45t-117.5 -44.5t-46.5 -113.5q0 -64 48.5 -110.5t115.5 -46.5q69 0 117 46t48 111z" />
    <glyph glyph-name="fi" unicode="&#xf001;" horiz-adv-x="492" 
d="M431 586h-92v14q0 64 -21 93.5t-73 29.5q-50 0 -71.5 -28.5t-21.5 -94.5v-166h106v-80h-106v-354h-92v354h-38v80h38v166q0 96 43 147q47 55 141 55q92 0 139.5 -52.5t47.5 -149.5v-14zM435 0h-92v434h92v-434z" />
    <glyph glyph-name="fl" unicode="&#xf002;" horiz-adv-x="492" 
d="M431 0h-92v600q0 60 -18 88q-22 35 -76 35q-56 0 -77 -37q-16 -28 -16 -86v-166h106v-80h-106v-354h-92v354h-38v80h38v166q0 98 45 150t140 52q92 0 139 -52t47 -150v-600z" />
    <glyph glyph-name="periodcentered" unicode="&#xb7;" horiz-adv-x="232" 
d="M172 256q0 -24 -16 -40t-41 -16q-24 0 -41 16t-17 40q0 25 16.5 41.5t41.5 16.5q24 0 40.5 -16.5t16.5 -41.5z" />
    <glyph glyph-name="periodcentered" unicode="&#x2219;" horiz-adv-x="232" 
d="M172 256q0 -24 -16 -40t-41 -16q-24 0 -41 16t-17 40q0 25 16.5 41.5t41.5 16.5q24 0 40.5 -16.5t16.5 -41.5z" />
    <glyph glyph-name="quotesinglbase" unicode="&#x201a;" horiz-adv-x="245" 
d="M175 10q0 -41 -21 -78.5t-57 -61.5l-31 42q30 28 40.5 50t10.5 52q0 13 -5 15q-2 1 -11 1h-41v110h115v-130z" />
    <glyph glyph-name="quotedblbase" unicode="&#x201e;" horiz-adv-x="392" 
d="M335 10q0 -41 -21 -78.5t-57 -61.5l-31 42q30 28 40.5 50t10.5 52q0 13 -5 15q-2 1 -11 1h-41v110h115v-130zM175 10q0 -41 -21 -78.5t-57 -61.5l-31 42q30 28 40.5 50t10.5 52q0 13 -5 15q-2 1 -11 1h-41v110h115v-130z" />
    <glyph glyph-name="perthousand" unicode="&#x2030;" horiz-adv-x="1006" 
d="M986 149q0 -69 -46 -115t-116 -46q-68 0 -115 46t-47 115t46 115t116 46q68 0 115 -46t47 -115zM339 551q0 -69 -46 -115t-116 -46q-68 0 -115 46t-47 115t46 115t116 46q68 0 115 -46t47 -115zM561 686l-413 -701l-52 28l415 702zM635 149q0 -69 -46 -115t-116 -46
q-68 0 -115 46t-47 115t46 115t116 46q68 0 115 -46t47 -115zM927 149q0 44 -29.5 75.5t-73.5 31.5q-45 0 -74 -31t-29 -76q0 -43 29.5 -74.5t73.5 -31.5q43 0 73 31t30 75zM280 551q0 44 -29.5 75.5t-73.5 31.5q-45 0 -74 -31t-29 -76q0 -43 29.5 -74.5t73.5 -31.5
q43 0 73 31t30 75zM576 149q0 44 -29.5 75.5t-73.5 31.5q-45 0 -74 -31t-29 -76q0 -43 29.5 -74.5t73.5 -31.5q43 0 73 31t30 75z" />
    <glyph glyph-name="Acircumflex" unicode="&#xc2;" horiz-adv-x="640" 
d="M648 0h-106l-77 179h-290l-77 -179h-106l327 730zM430 259l-111 257l-110 -257h221zM463 783l-55 -43l-86 84l-87 -84l-53 43l140 128z" />
    <glyph glyph-name="Ecircumflex" unicode="&#xca;" horiz-adv-x="466" 
d="M440 0h-380v700h380v-80h-288v-200h279v-80h-279v-260h288v-80zM397 783l-55 -43l-86 84l-87 -84l-53 43l140 128z" />
    <glyph glyph-name="Aacute" unicode="&#xc1;" horiz-adv-x="640" 
d="M648 0h-106l-77 179h-290l-77 -179h-106l327 730zM430 259l-111 257l-110 -257h221zM425 866l-158 -122l-41 25l128 142z" />
    <glyph glyph-name="Edieresis" unicode="&#xcb;" horiz-adv-x="466" 
d="M440 0h-380v700h380v-80h-288v-200h279v-80h-279v-260h288v-80zM393 819q0 -23 -16 -40t-39 -17q-24 0 -41.5 16.5t-17.5 40.5q0 23 17 39t42 16q23 0 39 -16t16 -39zM211 819q0 -23 -17 -40t-40 -17q-24 0 -40.5 16.5t-16.5 40.5q0 23 16 39t41 16q23 0 40 -16t17 -39z
" />
    <glyph glyph-name="Egrave" unicode="&#xc8;" horiz-adv-x="466" 
d="M440 0h-380v700h380v-80h-288v-200h279v-80h-279v-260h288v-80zM340 769l-41 -25l-158 122l71 45z" />
    <glyph glyph-name="Iacute" unicode="&#xcd;" horiz-adv-x="215" 
d="M152 0h-92v700h92v-700zM209 866l-158 -122l-41 25l128 142z" />
    <glyph glyph-name="Icircumflex" unicode="&#xce;" horiz-adv-x="215" 
d="M152 0h-92v700h92v-700zM250 783l-55 -43l-86 84l-87 -84l-53 43l140 128z" />
    <glyph glyph-name="Idieresis" unicode="&#xcf;" horiz-adv-x="215" 
d="M152 0h-92v700h92v-700zM255 819q0 -23 -16 -40t-39 -17q-24 0 -41.5 16.5t-17.5 40.5q0 23 17 39t42 16q23 0 39 -16t16 -39zM73 819q0 -23 -17 -40t-40 -17q-24 0 -40.5 16.5t-16.5 40.5q0 23 16 39t41 16q23 0 40 -16t17 -39z" />
    <glyph glyph-name="Igrave" unicode="&#xcc;" horiz-adv-x="215" 
d="M152 0h-92v700h92v-700zM208 769l-41 -25l-158 122l71 45z" />
    <glyph glyph-name="Oacute" unicode="&#xd3;" horiz-adv-x="785" 
d="M757 350q0 -156 -103.5 -260.5t-259.5 -104.5q-157 0 -265.5 104.5t-108.5 260.5q0 149 110 257t264 108q151 0 257 -108t106 -257zM666 350q0 116 -78 198t-196 82q-123 0 -201 -81t-78 -197q0 -120 82 -200t197 -80t194.5 80.5t79.5 197.5zM485 866l-158 -122l-41 25
l128 142z" />
    <glyph glyph-name="Ocircumflex" unicode="&#xd4;" horiz-adv-x="785" 
d="M757 350q0 -156 -103.5 -260.5t-259.5 -104.5q-157 0 -265.5 104.5t-108.5 260.5q0 149 110 257t264 108q151 0 257 -108t106 -257zM666 350q0 116 -78 198t-196 82q-123 0 -201 -81t-78 -197q0 -120 82 -200t197 -80t194.5 80.5t79.5 197.5zM529 783l-55 -43l-86 84
l-87 -84l-53 43l140 128z" />
    <glyph glyph-name="apple" unicode="&#xf000;" horiz-adv-x="771" 
d="M734 0h-699v700h699v-700z" />
    <glyph glyph-name="Ograve" unicode="&#xd2;" horiz-adv-x="785" 
d="M757 350q0 -156 -103.5 -260.5t-259.5 -104.5q-157 0 -265.5 104.5t-108.5 260.5q0 149 110 257t264 108q151 0 257 -108t106 -257zM666 350q0 116 -78 198t-196 82q-123 0 -201 -81t-78 -197q0 -120 82 -200t197 -80t194.5 80.5t79.5 197.5zM484 769l-41 -25l-158 122
l71 45z" />
    <glyph glyph-name="Uacute" unicode="&#xda;" horiz-adv-x="630" 
d="M570 259q0 -120 -65 -195q-69 -79 -190 -79t-190 79q-65 74 -65 195v441h91v-429q0 -90 34 -141q41 -62 130 -62t130 61q34 51 34 142v429h91v-441zM416 866l-158 -122l-41 25l128 142z" />
    <glyph glyph-name="Ucircumflex" unicode="&#xdb;" horiz-adv-x="630" 
d="M570 259q0 -120 -65 -195q-69 -79 -190 -79t-190 79q-65 74 -65 195v441h91v-429q0 -90 34 -141q41 -62 130 -62t130 61q34 51 34 142v429h91v-441zM454 783l-55 -43l-86 84l-87 -84l-53 43l140 128z" />
    <glyph glyph-name="Ugrave" unicode="&#xd9;" horiz-adv-x="630" 
d="M570 259q0 -120 -65 -195q-69 -79 -190 -79t-190 79q-65 74 -65 195v441h91v-429q0 -90 34 -141q41 -62 130 -62t130 61q34 51 34 142v429h91v-441zM412 769l-41 -25l-158 122l71 45z" />
    <glyph glyph-name="dotlessi" unicode="&#x131;" horiz-adv-x="212" 
d="M152 0h-92v434h92v-434z" />
    <glyph glyph-name="circumflex" unicode="&#x2c6;" horiz-adv-x="0" 
d="M391 553l-55 -43l-86 84l-87 -84l-53 43l140 128z" />
    <glyph glyph-name="tilde" unicode="&#x2dc;" horiz-adv-x="0" 
d="M422 602q-17 -33 -43 -52q-31 -23 -67 -23q-23 0 -53 15q-66 33 -84 33q-19 0 -30.5 -10.5t-21.5 -32.5l-45 38q11 26 37 47q32 27 66 27q39 0 80 -24.5t58 -24.5q18 0 32 12t27 34z" />
    <glyph glyph-name="macron" unicode="&#xaf;" horiz-adv-x="0" 
d="M399 581h-311v63h311v-63z" />
    <glyph glyph-name="breve" unicode="&#x2d8;" horiz-adv-x="0" 
d="M399 644q-11 -57 -51.5 -88t-94.5 -31q-53 0 -91 29q-42 32 -54 90h60q13 -32 32 -44.5t53 -12.5t53.5 12t32.5 45h60z" />
    <glyph glyph-name="dotaccent" unicode="&#x2d9;" horiz-adv-x="0" 
d="M309 589q0 -24 -16.5 -40.5t-39.5 -16.5q-24 0 -40.5 16.5t-16.5 40.5q0 22 16 37t41 15q24 0 40 -14t16 -38z" />
    <glyph glyph-name="ring" unicode="&#x2da;" horiz-adv-x="0" 
d="M318 597q0 -34 -23 -57t-58 -23q-33 0 -56 23t-23 57q0 32 23 56t56 24q34 0 57.5 -23.5t23.5 -56.5zM278 597q0 17 -12 28t-29 11q-16 0 -28 -11t-12 -28t12 -29t28 -12q17 0 29 12t12 29z" />
    <glyph glyph-name="cedilla" unicode="&#xb8;" horiz-adv-x="0" 
d="M301 -34l-97 -134l-45 25l77 136z" />
    <glyph glyph-name="hungarumlaut" unicode="&#x2ba;" horiz-adv-x="0" 
d="M468 633l-158 -130l-41 25l123 145zM295 642l-152 -124l-41 24l116 139z" />
    <glyph glyph-name="ogonek" unicode="&#x2db;" horiz-adv-x="0" 
d="M174 -130l-11 -50q-27 -17 -58 -17q-38 0 -67.5 20t-29.5 56q0 33 25 70q22 33 52 51h44q-20 -14 -37 -44t-17 -55q0 -22 15 -33t37 -11q14 0 23 2.5t24 10.5z" />
    <glyph glyph-name="caron" unicode="&#x2c7;" horiz-adv-x="0" 
d="M319 639l-141 -123l-140 126l47 39l93 -78l95 78z" />
  </font>
</defs>
</svg>
